#!OML:ASF X:\für Bonn\!DataBase\2005_08_10_Bjorn_Final\c3d\bjorn.ASF
:FULLY-SPECIFIED
:DEGREES
106
root -1.9572 13.2285 17.8535 -360.013 -202.027 -15.8955
lowerback 50.7604 -15.2328 13.5377
upperback 21.9419 -0.25671 8.0815
thorax 4.3685 3.89588 3.37672
lowerneck 8.87686 -10.9441 12.2037
upperneck -15.3434 -13.2099 1.66113
head -6.8734 -7.27319 -0.164022
rclavicle 1.04958e-013 9.93923e-015
rhumerus -164.797 -138.371 126.016
rradius 22.122
rwrist -1.85701
rhand -12.358 7.1873
rfingers 7.12502
rthumb 13.712 -22.3409
lclavicle 1.04958e-013 9.93923e-015
lhumerus -383.809 -29.3991 -308.838
lradius 99.4715
lwrist 1.53735
lhand -28.6655 -11.3702
lfingers 7.12502
lthumb -2.0287 18.5999
rfemur -78.575 -13.9231 -3.91375
rtibia 101.318
rfoot -23.8643 23.5951
rtoes -20.5101
lfemur -71.5151 13.6713 -39.6093
ltibia 103.96
lfoot -34.5766 24.0339
ltoes -15.8589
107
root -1.94918 13.1089 17.8683 -360.362 -202.062 -15.9774
lowerback 50.8806 -15.2727 13.5533
upperback 21.9135 -0.222423 8.21206
thorax 4.32476 3.90739 3.50825
lowerneck 9.13443 -10.853 12.6921
upperneck -15.6598 -13.0071 1.37736
head -7.06604 -7.18714 -0.313875
rclavicle -5.08889e-014 -2.34566e-014
rhumerus -165.522 -137.78 126.401
rradius 22.167
rwrist -2.62677
rhand -12.0584 6.87377
rfingers 7.12502
rthumb 14.0007 -22.6347
lclavicle -5.08889e-014 -2.34566e-014
lhumerus -383.556 -29.8265 -309.783
lradius 99.3305
lwrist 1.92067
lhand -28.2375 -11.1492
lfingers 7.12502
lthumb -1.6153 18.8244
rfemur -79.1163 -14.2325 -3.88547
rtibia 102.306
rfoot -24.0066 23.9226
rtoes -20.5168
lfemur -71.859 13.6147 -39.4762
ltibia 104.991
lfoot -34.9572 23.8505
ltoes -15.5017
108
root -1.94019 12.9898 17.8842 -360.724 -202.101 -16.0583
lowerback 51.0174 -15.2977 13.5311
upperback 21.8778 -0.187377 8.34858
thorax 4.26752 3.91383 3.6602
lowerneck 9.41849 -10.7356 13.0982
upperneck -15.9887 -12.7636 1.14484
head -7.25506 -7.08176 -0.441629
rclavicle 2.8625e-014 0
rhumerus -166.117 -137.179 126.701
rradius 22.1198
rwrist -3.19622
rhand -11.6651 6.60293
rfingers 7.12502
rthumb 14.3797 -22.879
lclavicle 2.8625e-014 0
lhumerus -383.347 -30.2014 -310.665
lradius 99.1382
lwrist 2.27686
lhand -27.8145 -10.9772
lfingers 7.12502
lthumb -1.20673 18.9992
rfemur -79.6572 -14.5438 -3.84774
rtibia 103.293
rfoot -24.0739 24.2909
rtoes -20.3661
lfemur -72.1901 13.5673 -39.3045
ltibia 106.018
lfoot -35.3004 23.616
ltoes -15.0715
109
root -1.93027 12.8683 17.9003 -361.09 -202.105 -16.1148
lowerback 51.1473 -15.3376 13.4783
upperback 21.8435 -0.178788 8.51335
thorax 4.20988 3.90308 3.86426
lowerneck 9.70535 -10.5595 13.3355
upperneck -16.2731 -12.449 0.97834
head -7.40842 -6.93693 -0.537941
rclavicle -1.27222e-014 -5.40694e-014
rhumerus -166.854 -136.996 127.186
rradius 22.1655
rwrist -4.07134
rhand -11.3548 6.2576
rfingers 7.12502
rthumb 14.6786 -23.2028
lclavicle -1.27222e-014 -5.40694e-014
lhumerus -383.226 -30.4836 -311.444
lradius 98.8495
lwrist 2.5441
lhand -27.3121 -10.9108
lfingers 7.12502
lthumb -0.721546 19.0677
rfemur -80.1857 -14.8832 -3.78863
rtibia 104.295
rfoot -24.2005 24.6397
rtoes -20.2314
lfemur -72.5064 13.507 -39.099
ltibia 107.057
lfoot -35.5798 23.3974
ltoes -14.6976
110
root -1.91904 12.7465 17.9171 -361.468 -202.1 -16.1903
lowerback 51.2693 -15.3747 13.3859
upperback 21.8071 -0.192734 8.67415
thorax 4.14752 3.87752 4.08604
lowerneck 9.98537 -10.3511 13.4398
upperneck -16.5267 -12.0973 0.884113
head -7.53358 -6.77199 -0.601071
rclavicle 1.81292e-013 1.70955e-014
rhumerus -167.573 -136.87 127.614
rradius 22.2303
rwrist -4.79593
rhand -11.0126 5.94828
rfingers 7.12502
rthumb 15.0083 -23.4878
lclavicle 1.81292e-013 1.70955e-014
lhumerus -383.152 -30.7047 -312.197
lradius 98.5238
lwrist 2.77924
lhand -26.8089 -10.9403
lfingers 7.12502
lthumb -0.235533 19.0393
rfemur -80.7049 -15.2368 -3.74106
rtibia 105.301
rfoot -24.3508 24.9608
rtoes -20.2359
lfemur -72.8069 13.4561 -38.8787
ltibia 108.086
lfoot -35.8446 23.0924
ltoes -14.3743
111
root -1.90729 12.6229 17.9344 -361.863 -202.08 -16.2689
lowerback 51.3593 -15.4177 13.3347
upperback 21.7815 -0.199669 8.81405
thorax 4.10399 3.86473 4.26668
lowerneck 10.2443 -10.1262 13.5809
upperneck -16.849 -11.7126 0.811422
head -7.67724 -6.59797 -0.667044
rclavicle 1.11319e-013 4.77083e-015
rhumerus -168.449 -136.887 128.132
rradius 22.3944
rwrist -5.63623
rhand -10.7629 5.56754
rfingers 7.12502
rthumb 15.2489 -23.8504
lclavicle 1.11319e-013 4.77083e-015
lhumerus -382.979 -30.9609 -312.987
lradius 98.1295
lwrist 2.98631
lhand -26.3574 -10.983
lfingers 7.12502
lthumb 0.200559 18.9966
rfemur -81.2234 -15.6165 -3.69556
rtibia 106.307
rfoot -24.4512 25.32
rtoes -20.1144
lfemur -73.0954 13.3932 -38.6396
ltibia 109.115
lfoot -36.0406 22.7803
ltoes -14.1848
112
root -1.8933 12.4974 17.9528 -362.261 -202.039 -16.362
lowerback 51.4374 -15.4572 13.2435
upperback 21.7487 -0.232989 8.94282
thorax 4.05069 3.83518 4.4579
lowerneck 10.494 -9.8678 13.6511
upperneck -17.1214 -11.2865 0.768401
head -7.79314 -6.40103 -0.722544
rclavicle -1.17681e-013 -1.19271e-015
rhumerus -169.376 -137.108 128.642
rradius 22.6229
rwrist -6.43835
rhand -10.5295 5.24157
rfingers 7.12502
rthumb 15.4737 -24.1592
lclavicle -1.17681e-013 -1.19271e-015
lhumerus -382.876 -31.1673 -313.758
lradius 97.7318
lwrist 3.12362
lhand -25.9632 -10.9983
lfingers 7.12502
lthumb 0.581279 18.9806
rfemur -81.7544 -16.0106 -3.66145
rtibia 107.324
rfoot -24.573 25.6614
rtoes -20.0013
lfemur -73.398 13.3642 -38.408
ltibia 110.154
lfoot -36.062 22.5848
ltoes -14.4461
113
root -1.87882 12.3728 17.9716 -362.69 -201.992 -16.4381
lowerback 51.5214 -15.5166 13.158
upperback 21.7308 -0.277114 9.05852
thorax 4.01558 3.80695 4.63916
lowerneck 10.6749 -9.57563 13.6789
upperneck -17.3267 -10.8306 0.722034
head -7.86981 -6.18523 -0.783829
rclavicle -4.77083e-014 -1.55052e-014
rhumerus -170.236 -137.332 129.102
rradius 22.8328
rwrist -7.16282
rhand -10.205 5.12647
rfingers 7.12502
rthumb 15.7863 -24.2498
lclavicle -4.77083e-014 -1.55052e-014
lhumerus -382.783 -31.3393 -314.537
lradius 97.3358
lwrist 3.22202
lhand -25.5263 -10.981
lfingers 7.12502
lthumb 1.00322 18.9964
rfemur -82.2337 -16.3998 -3.61587
rtibia 108.331
rfoot -24.6923 26.0086
rtoes -19.8234
lfemur -73.6435 13.3577 -38.1241
ltibia 111.18
lfoot -35.9985 22.4234
ltoes -14.9791
